<svg xmlns="http://www.w3.org/2000/svg" width="64" height="64" viewBox="0 0 64 64" fill="none">
  <defs>
    <linearGradient id="bg" x1="10" y1="8" x2="54" y2="56" gradientUnits="userSpaceOnUse">
      <stop stop-color="#10B981" />
      <stop offset="0.56" stop-color="#0F9D8A" />
      <stop offset="1" stop-color="#0B6CCB" />
    </linearGradient>
  </defs>
  <rect x="6" y="6" width="52" height="52" rx="18" fill="url(#bg)" />
  <rect x="8.5" y="8.5" width="47" height="47" rx="15.5" stroke="white" stroke-opacity="0.16" />
  <path d="M25.5 15.5H34.2C40.1 15.5 44.6 19.5 44.6 24.95C44.6 28.2 42.9 30.95 40.35 32.35C43.25 33.72 45.15 36.63 45.15 40.45C45.15 46.75 40.16 51 33.35 51H25.5V15.5Z" fill="white" fill-opacity="0.16"/>
  <path d="M22.8 14H33.65C40.12 14 44.9 18.02 44.9 24.15C44.9 27.7 43.12 30.48 40.38 31.92C43.5 33.33 45.55 36.37 45.55 40.7C45.55 47.2 40.45 51.9 33.15 51.9H22.8V14ZM29.1 19.95V29.25H33.05C36.48 29.25 38.55 27.47 38.55 24.8C38.55 22 36.36 19.95 33.05 19.95H29.1ZM29.1 34.8V45.95H33.55C37.14 45.95 39.2 43.83 39.2 40.9C39.2 37.8 36.94 34.8 33.55 34.8H29.1Z" fill="white"/>
</svg>
