<svg xmlns="http://www.w3.org/2000/svg" width="64" height="64" viewBox="0 0 64 64" fill="none">
  <defs>
    <linearGradient id="bg" x1="8" y1="8" x2="56" y2="56" gradientUnits="userSpaceOnUse">
      <stop stop-color="#020617" />
      <stop offset="0.58" stop-color="#0F172A" />
      <stop offset="1" stop-color="#134E4A" />
    </linearGradient>
    <linearGradient id="glyph" x1="24" y1="18" x2="40" y2="48" gradientUnits="userSpaceOnUse">
      <stop stop-color="#ECFEFF" />
      <stop offset="1" stop-color="#67E8F9" />
    </linearGradient>
  </defs>

  <rect x="6" y="6" width="52" height="52" rx="18" fill="url(#bg)" />
  <rect x="8.5" y="8.5" width="47" height="47" rx="15.5" stroke="white" stroke-opacity="0.08" />

  <path
    d="M24 15.5H33.4C39.76 15.5 44 19.14 44 24.74C44 27.96 42.42 30.42 39.84 31.7C42.82 32.9 44.66 35.72 44.66 39.76C44.66 46.18 39.73 50.5 32.88 50.5H24V15.5ZM29.92 20.42V29.18H32.98C36 29.18 38.1 27.6 38.1 24.98C38.1 22.14 35.92 20.42 32.98 20.42H29.92ZM29.92 34.02V45.52H33.4C36.62 45.52 38.68 43.42 38.68 40.36C38.68 37.16 36.52 34.02 33.32 34.02H29.92Z"
    fill="url(#glyph)"
  />
</svg>
